G04 EAGLE Gerber RS-274X export*
G75*
%MOMM*%
%FSLAX34Y34*%
%LPD*%
%INTop Copper*%
%IPPOS*%
%AMOC8*
5,1,8,0,0,1.08239X$1,22.5*%
G01*
%ADD10R,1.300000X1.500000*%
%ADD11R,1.500000X1.300000*%
%ADD12R,2.540000X5.080000*%
%ADD13P,1.649562X8X112.500000*%
%ADD14R,4.000000X2.000000*%
%ADD15C,1.524000*%
%ADD16R,1.016000X2.692400*%
%ADD17R,10.160000X8.940800*%
%ADD18P,1.649562X8X22.500000*%
%ADD19C,1.016000*%
%ADD20C,0.406400*%
%ADD21C,2.000759*%
%ADD22C,0.355600*%
%ADD23C,0.609600*%


D10*
X230530Y146050D03*
X249530Y146050D03*
D11*
X148590Y207670D03*
X148590Y226670D03*
D12*
X196850Y100330D03*
D13*
X66040Y40640D03*
X40640Y40640D03*
X66040Y66040D03*
X40640Y66040D03*
X66040Y91440D03*
X40640Y91440D03*
X66040Y116840D03*
X40640Y116840D03*
X66040Y142240D03*
X40640Y142240D03*
X66040Y167640D03*
X40640Y167640D03*
X66040Y193040D03*
X40640Y193040D03*
X66040Y218440D03*
X40640Y218440D03*
X66040Y243840D03*
X40640Y243840D03*
X66040Y269240D03*
X40640Y269240D03*
X66040Y294640D03*
X40640Y294640D03*
X66040Y320040D03*
X40640Y320040D03*
X66040Y345440D03*
X40640Y345440D03*
X66040Y370840D03*
X40640Y370840D03*
X66040Y396240D03*
X40640Y396240D03*
X66040Y421640D03*
X40640Y421640D03*
X66040Y447040D03*
X40640Y447040D03*
X66040Y472440D03*
X40640Y472440D03*
X66040Y497840D03*
X40640Y497840D03*
X66040Y523240D03*
X40640Y523240D03*
D12*
X290830Y102870D03*
D14*
X361640Y143510D03*
X361640Y118110D03*
X361640Y92710D03*
X361640Y67310D03*
X481640Y67310D03*
X481640Y92710D03*
X481640Y118110D03*
X481640Y143510D03*
D15*
X363982Y812800D02*
X363982Y828040D01*
X338582Y828040D02*
X338582Y812800D01*
X313182Y812800D02*
X313182Y828040D01*
X287782Y828040D02*
X287782Y812800D01*
X262382Y812800D02*
X262382Y828040D01*
X236982Y828040D02*
X236982Y812800D01*
X211582Y812800D02*
X211582Y828040D01*
X186182Y828040D02*
X186182Y812800D01*
X236982Y501650D02*
X236982Y486410D01*
X262382Y486410D02*
X262382Y501650D01*
X287782Y501650D02*
X287782Y486410D01*
X313182Y486410D02*
X313182Y501650D01*
X53340Y762000D02*
X38100Y762000D01*
X38100Y736600D02*
X53340Y736600D01*
X53340Y711200D02*
X38100Y711200D01*
X495300Y711200D02*
X510540Y711200D01*
X510540Y736600D02*
X495300Y736600D01*
X495300Y762000D02*
X510540Y762000D01*
X378460Y501650D02*
X378460Y486410D01*
X403860Y486410D02*
X403860Y501650D01*
X429260Y501650D02*
X429260Y486410D01*
X378460Y426720D02*
X378460Y411480D01*
X403860Y411480D02*
X403860Y426720D01*
X429260Y426720D02*
X429260Y411480D01*
X454660Y411480D02*
X454660Y426720D01*
D16*
X232918Y188214D03*
X258318Y188214D03*
X283718Y188214D03*
D17*
X258318Y280162D03*
D15*
X116840Y312420D02*
X116840Y327660D01*
X142240Y327660D02*
X142240Y312420D01*
X167640Y312420D02*
X167640Y327660D01*
X116840Y363220D02*
X116840Y378460D01*
X142240Y378460D02*
X142240Y363220D01*
X167640Y363220D02*
X167640Y378460D01*
X116332Y414020D02*
X116332Y429260D01*
X141732Y429260D02*
X141732Y414020D01*
X167132Y414020D02*
X167132Y429260D01*
D18*
X115570Y273050D03*
X167894Y271526D03*
D15*
X505460Y336550D02*
X505460Y351790D01*
X480060Y351790D02*
X480060Y336550D01*
X454660Y336550D02*
X454660Y351790D01*
X429260Y351790D02*
X429260Y336550D01*
X403860Y336550D02*
X403860Y351790D01*
X378460Y351790D02*
X378460Y336550D01*
X353060Y336550D02*
X353060Y351790D01*
D19*
X236982Y370840D02*
X236982Y494030D01*
D20*
X16510Y64770D02*
X40640Y40640D01*
X16510Y223520D02*
X23876Y230886D01*
X16510Y223520D02*
X16510Y64770D01*
D19*
X403860Y494030D02*
X403860Y515620D01*
X398780Y520700D01*
X354330Y520700D01*
X346710Y513080D01*
X346710Y480568D01*
X281051Y414909D01*
X236982Y370840D01*
X196850Y330708D01*
D20*
X144374Y230886D02*
X23876Y230886D01*
X144374Y230886D02*
X148590Y226670D01*
D19*
X258318Y202184D02*
X258318Y188214D01*
X258318Y202184D02*
X245618Y214884D01*
X199034Y226670D02*
X148590Y226670D01*
X210820Y214884D02*
X245618Y214884D01*
X210820Y214884D02*
X199034Y226670D01*
X196850Y309372D02*
X196850Y330708D01*
X196850Y309372D02*
X196850Y228854D01*
X199034Y226670D01*
X142240Y320040D02*
X142240Y370840D01*
X142240Y395732D01*
X141732Y421640D01*
X142240Y320040D02*
X142240Y309372D01*
X158242Y293370D01*
X180848Y293370D01*
X196850Y309372D01*
D21*
X281051Y414909D03*
X149860Y133350D03*
D20*
X40640Y217170D02*
X40640Y218440D01*
X40640Y217170D02*
X52070Y205740D01*
X82550Y205740D01*
X149860Y138430D02*
X149860Y133350D01*
X149860Y138430D02*
X82550Y205740D01*
D21*
X132080Y676910D03*
D22*
X186690Y622300D01*
X186690Y612140D01*
D21*
X186690Y612140D03*
D19*
X313182Y514350D02*
X338582Y539750D01*
X313182Y514350D02*
X313182Y494030D01*
X338582Y539750D02*
X412750Y539750D01*
X429260Y523240D01*
X429260Y494030D01*
X383540Y118110D02*
X361640Y118110D01*
X383540Y118110D02*
X394970Y129540D01*
X394970Y191770D01*
X495300Y292100D01*
X505460Y302260D01*
D23*
X40640Y269240D02*
X19304Y290576D01*
D21*
X68580Y595630D03*
D19*
X167640Y370840D02*
X167640Y320040D01*
X167640Y370840D02*
X167640Y395732D01*
X167132Y421640D01*
D23*
X19304Y546354D02*
X68580Y595630D01*
X19304Y546354D02*
X19304Y290576D01*
X167132Y497078D02*
X68580Y595630D01*
X167132Y497078D02*
X167132Y421640D01*
D19*
X505460Y344170D02*
X505460Y302260D01*
D21*
X400050Y679450D03*
X278130Y675640D03*
D22*
X278130Y694690D01*
X297180Y713740D01*
X365760Y713740D01*
X400050Y679450D01*
D21*
X156933Y676910D03*
D22*
X156933Y671107D01*
X177800Y650240D02*
X205740Y650240D01*
X220980Y665480D01*
X220980Y695960D01*
X227330Y702310D01*
X270510Y702310D02*
X278130Y694690D01*
X177800Y650240D02*
X156933Y671107D01*
X227330Y702310D02*
X270510Y702310D01*
X227330Y702310D02*
X211582Y718058D01*
X211582Y820420D01*
D21*
X429260Y679450D03*
D22*
X457200Y651510D02*
X457200Y586740D01*
X440690Y570230D01*
X356870Y570230D02*
X351790Y565150D01*
D21*
X351790Y565150D03*
D22*
X457200Y651510D02*
X429260Y679450D01*
X440690Y570230D02*
X356870Y570230D01*
D21*
X299114Y692150D03*
D22*
X326390Y590550D02*
X351790Y565150D01*
X326390Y664874D02*
X299114Y692150D01*
X326390Y664874D02*
X326390Y590550D01*
D21*
X127000Y599440D03*
X179734Y673100D03*
D22*
X108614Y663253D02*
X108614Y684218D01*
X120963Y696566D01*
X171138Y696566D01*
X127000Y644867D02*
X108614Y663253D01*
X179734Y673100D02*
X179734Y687969D01*
X171138Y696566D01*
X127000Y644867D02*
X127000Y599440D01*
X186182Y711610D02*
X186182Y820420D01*
X186182Y711610D02*
X171138Y696566D01*
D21*
X248920Y675640D03*
X298450Y595630D03*
D22*
X297180Y595630D01*
X248920Y643890D01*
X248920Y675640D01*
D21*
X430530Y628650D03*
X365760Y679450D03*
D22*
X416560Y628650D02*
X430530Y628650D01*
X416560Y628650D02*
X365760Y679450D01*
D21*
X430530Y590550D03*
D22*
X430530Y628650D01*
D21*
X299720Y622300D03*
D22*
X314960Y607060D01*
X314960Y576580D01*
X287782Y549402D01*
X287782Y494030D01*
D21*
X270510Y596900D03*
D22*
X270510Y539750D01*
X262382Y531622D02*
X262382Y494030D01*
X262382Y531622D02*
X270510Y539750D01*
D20*
X53340Y104140D02*
X40640Y91440D01*
D19*
X208280Y146050D02*
X230530Y146050D01*
X208280Y146050D02*
X196850Y134620D01*
X196850Y100330D01*
D20*
X193040Y104140D02*
X53340Y104140D01*
X193040Y104140D02*
X196850Y100330D01*
D19*
X232918Y148438D02*
X232918Y188214D01*
X232918Y148438D02*
X230530Y146050D01*
X208280Y147980D02*
X148590Y207670D01*
X208280Y147980D02*
X208280Y146050D01*
X454970Y40640D02*
X481640Y67310D01*
X162560Y40640D02*
X111760Y91440D01*
X66040Y91440D01*
X162560Y40640D02*
X454970Y40640D01*
X403860Y397510D02*
X403860Y419100D01*
X403860Y397510D02*
X415290Y386080D01*
X511810Y386080D01*
X527050Y370840D01*
X527050Y278130D01*
X430530Y181610D02*
X430530Y78740D01*
X441960Y67310D01*
X481640Y67310D01*
X430530Y181610D02*
X527050Y278130D01*
X509270Y143510D02*
X481640Y143510D01*
X509270Y143510D02*
X519430Y133350D01*
X519430Y58420D01*
X482600Y21590D01*
X144780Y21590D01*
X100330Y66040D01*
X66040Y66040D01*
X365760Y419100D02*
X378460Y419100D01*
X365760Y419100D02*
X322580Y375920D01*
X322580Y118110D01*
D21*
X322580Y118110D03*
X482600Y181610D03*
D19*
X481640Y180650D01*
X481640Y143510D01*
D21*
X99060Y161290D03*
D20*
X87630Y161290D01*
X81280Y154940D01*
X53340Y154940D02*
X40640Y142240D01*
X53340Y154940D02*
X81280Y154940D01*
D19*
X249530Y146050D02*
X284480Y146050D01*
X290830Y139700D01*
X290830Y102870D01*
X283718Y177190D02*
X283718Y188214D01*
X283718Y177190D02*
X252578Y146050D01*
X249530Y146050D01*
X361640Y143510D02*
X361640Y191770D01*
D23*
X68834Y246634D02*
X66040Y243840D01*
X68834Y246634D02*
X95250Y246634D01*
D21*
X95250Y246634D03*
D19*
X378460Y208590D02*
X378460Y344170D01*
X378460Y208590D02*
X361640Y191770D01*
D23*
X102870Y218440D02*
X66040Y218440D01*
X102870Y218440D02*
X110490Y210820D01*
D21*
X110490Y210820D03*
X271780Y346710D03*
D23*
X271780Y356870D01*
X378460Y463550D01*
X378460Y494030D01*
D21*
X163830Y594360D03*
D22*
X143510Y574040D01*
X116840Y574040D01*
X107696Y583184D01*
X107696Y633476D01*
X94488Y646684D01*
X94488Y681990D01*
X65278Y711200D01*
X45720Y711200D01*
D23*
X116332Y425450D02*
X116332Y421640D01*
X116332Y425450D02*
X130556Y439674D01*
X130556Y468630D01*
X101346Y497840D02*
X66040Y497840D01*
X101346Y497840D02*
X130556Y468630D01*
X78486Y421640D02*
X66040Y421640D01*
X78486Y421640D02*
X87884Y412242D01*
X87884Y389128D01*
X116840Y370840D02*
X116840Y360172D01*
X87884Y389128D01*
X89154Y373126D02*
X66040Y396240D01*
X116840Y320040D02*
X116840Y314452D01*
X89154Y342138D02*
X89154Y373126D01*
X89154Y342138D02*
X116840Y314452D01*
D22*
X48798Y294640D02*
X40640Y294640D01*
X48798Y294640D02*
X60990Y306832D01*
X81788Y306832D01*
X115570Y273050D01*
X53340Y256540D02*
X40640Y243840D01*
X53340Y256540D02*
X76200Y256540D01*
X81280Y261620D01*
X109758Y261620D02*
X114330Y257048D01*
X153416Y257048D01*
X109758Y261620D02*
X81280Y261620D01*
X153416Y257048D02*
X167894Y271526D01*
D21*
X109220Y459740D03*
D22*
X53340Y459740D01*
X40640Y472440D01*
D21*
X109220Y129540D03*
D22*
X53340Y129540D01*
X40640Y116840D01*
M02*
