G04 EAGLE Gerber RS-274X export*
G75*
%MOMM*%
%FSLAX34Y34*%
%LPD*%
%INBottom Copper*%
%IPPOS*%
%AMOC8*
5,1,8,0,0,1.08239X$1,22.5*%
G01*
%ADD10R,1.500000X1.300000*%
%ADD11R,1.300000X1.500000*%
%ADD12R,1.000000X1.000000*%
%ADD13R,0.350000X0.700000*%
%ADD14R,0.700000X0.350000*%
%ADD15P,1.649562X8X112.500000*%
%ADD16C,1.524000*%
%ADD17P,1.649562X8X22.500000*%
%ADD18C,2.000759*%
%ADD19C,1.016000*%
%ADD20C,0.609600*%
%ADD21C,0.355600*%

G36*
X386167Y628282D02*
X386167Y628282D01*
X386254Y628285D01*
X386307Y628302D01*
X386362Y628310D01*
X386441Y628345D01*
X386525Y628372D01*
X386564Y628400D01*
X386621Y628426D01*
X386734Y628522D01*
X386798Y628567D01*
X389973Y631742D01*
X390025Y631812D01*
X390085Y631876D01*
X390111Y631925D01*
X390144Y631969D01*
X390175Y632051D01*
X390215Y632129D01*
X390223Y632177D01*
X390245Y632235D01*
X390257Y632383D01*
X390270Y632460D01*
X390270Y648335D01*
X390262Y648393D01*
X390264Y648451D01*
X390242Y648533D01*
X390230Y648617D01*
X390207Y648670D01*
X390192Y648726D01*
X390149Y648799D01*
X390114Y648876D01*
X390076Y648921D01*
X390047Y648971D01*
X389985Y649029D01*
X389931Y649093D01*
X389882Y649125D01*
X389839Y649165D01*
X389764Y649204D01*
X389694Y649251D01*
X389638Y649268D01*
X389586Y649295D01*
X389518Y649306D01*
X389423Y649336D01*
X389323Y649339D01*
X389255Y649350D01*
X370205Y649350D01*
X370147Y649342D01*
X370089Y649344D01*
X370007Y649322D01*
X369924Y649310D01*
X369870Y649287D01*
X369814Y649272D01*
X369741Y649229D01*
X369664Y649194D01*
X369619Y649156D01*
X369569Y649127D01*
X369511Y649065D01*
X369447Y649011D01*
X369415Y648962D01*
X369375Y648919D01*
X369336Y648844D01*
X369290Y648774D01*
X369272Y648718D01*
X369245Y648666D01*
X369234Y648598D01*
X369204Y648503D01*
X369201Y648403D01*
X369190Y648335D01*
X369190Y629285D01*
X369198Y629227D01*
X369196Y629169D01*
X369218Y629087D01*
X369230Y629004D01*
X369254Y628950D01*
X369268Y628894D01*
X369311Y628821D01*
X369346Y628744D01*
X369384Y628699D01*
X369414Y628649D01*
X369475Y628591D01*
X369530Y628527D01*
X369578Y628495D01*
X369621Y628455D01*
X369696Y628416D01*
X369766Y628370D01*
X369822Y628352D01*
X369874Y628325D01*
X369942Y628314D01*
X370037Y628284D01*
X370137Y628281D01*
X370205Y628270D01*
X386080Y628270D01*
X386167Y628282D01*
G37*
G36*
X270597Y628282D02*
X270597Y628282D01*
X270684Y628285D01*
X270737Y628302D01*
X270792Y628310D01*
X270871Y628345D01*
X270955Y628372D01*
X270994Y628400D01*
X271051Y628426D01*
X271164Y628522D01*
X271228Y628567D01*
X274403Y631742D01*
X274455Y631812D01*
X274515Y631876D01*
X274541Y631925D01*
X274574Y631969D01*
X274605Y632051D01*
X274645Y632129D01*
X274653Y632177D01*
X274675Y632235D01*
X274687Y632383D01*
X274700Y632460D01*
X274700Y648335D01*
X274692Y648393D01*
X274694Y648451D01*
X274672Y648533D01*
X274660Y648617D01*
X274637Y648670D01*
X274622Y648726D01*
X274579Y648799D01*
X274544Y648876D01*
X274506Y648921D01*
X274477Y648971D01*
X274415Y649029D01*
X274361Y649093D01*
X274312Y649125D01*
X274269Y649165D01*
X274194Y649204D01*
X274124Y649251D01*
X274068Y649268D01*
X274016Y649295D01*
X273948Y649306D01*
X273853Y649336D01*
X273753Y649339D01*
X273685Y649350D01*
X254635Y649350D01*
X254577Y649342D01*
X254519Y649344D01*
X254437Y649322D01*
X254354Y649310D01*
X254300Y649287D01*
X254244Y649272D01*
X254171Y649229D01*
X254094Y649194D01*
X254049Y649156D01*
X253999Y649127D01*
X253941Y649065D01*
X253877Y649011D01*
X253845Y648962D01*
X253805Y648919D01*
X253766Y648844D01*
X253720Y648774D01*
X253702Y648718D01*
X253675Y648666D01*
X253664Y648598D01*
X253634Y648503D01*
X253631Y648403D01*
X253620Y648335D01*
X253620Y629285D01*
X253628Y629227D01*
X253626Y629169D01*
X253648Y629087D01*
X253660Y629004D01*
X253684Y628950D01*
X253698Y628894D01*
X253741Y628821D01*
X253776Y628744D01*
X253814Y628699D01*
X253844Y628649D01*
X253905Y628591D01*
X253960Y628527D01*
X254008Y628495D01*
X254051Y628455D01*
X254126Y628416D01*
X254196Y628370D01*
X254252Y628352D01*
X254304Y628325D01*
X254372Y628314D01*
X254467Y628284D01*
X254567Y628281D01*
X254635Y628270D01*
X270510Y628270D01*
X270597Y628282D01*
G37*
G36*
X155027Y627012D02*
X155027Y627012D01*
X155114Y627015D01*
X155167Y627032D01*
X155222Y627040D01*
X155301Y627075D01*
X155385Y627102D01*
X155424Y627130D01*
X155481Y627156D01*
X155594Y627252D01*
X155658Y627297D01*
X158833Y630472D01*
X158885Y630542D01*
X158945Y630606D01*
X158971Y630655D01*
X159004Y630699D01*
X159035Y630781D01*
X159075Y630859D01*
X159083Y630907D01*
X159105Y630965D01*
X159117Y631113D01*
X159130Y631190D01*
X159130Y647065D01*
X159122Y647123D01*
X159124Y647181D01*
X159102Y647263D01*
X159090Y647347D01*
X159067Y647400D01*
X159052Y647456D01*
X159009Y647529D01*
X158974Y647606D01*
X158936Y647651D01*
X158907Y647701D01*
X158845Y647759D01*
X158791Y647823D01*
X158742Y647855D01*
X158699Y647895D01*
X158624Y647934D01*
X158554Y647981D01*
X158498Y647998D01*
X158446Y648025D01*
X158378Y648036D01*
X158283Y648066D01*
X158183Y648069D01*
X158115Y648080D01*
X139065Y648080D01*
X139007Y648072D01*
X138949Y648074D01*
X138867Y648052D01*
X138784Y648040D01*
X138730Y648017D01*
X138674Y648002D01*
X138601Y647959D01*
X138524Y647924D01*
X138479Y647886D01*
X138429Y647857D01*
X138371Y647795D01*
X138307Y647741D01*
X138275Y647692D01*
X138235Y647649D01*
X138196Y647574D01*
X138150Y647504D01*
X138132Y647448D01*
X138105Y647396D01*
X138094Y647328D01*
X138064Y647233D01*
X138061Y647133D01*
X138050Y647065D01*
X138050Y628015D01*
X138058Y627957D01*
X138056Y627899D01*
X138078Y627817D01*
X138090Y627734D01*
X138114Y627680D01*
X138128Y627624D01*
X138171Y627551D01*
X138206Y627474D01*
X138244Y627429D01*
X138274Y627379D01*
X138335Y627321D01*
X138390Y627257D01*
X138438Y627225D01*
X138481Y627185D01*
X138556Y627146D01*
X138626Y627100D01*
X138682Y627082D01*
X138734Y627055D01*
X138802Y627044D01*
X138897Y627014D01*
X138997Y627011D01*
X139065Y627000D01*
X154940Y627000D01*
X155027Y627012D01*
G37*
D10*
X99060Y595020D03*
X99060Y614020D03*
D11*
X400660Y730250D03*
X381660Y730250D03*
X381660Y703580D03*
X400660Y703580D03*
X390500Y594360D03*
X371500Y594360D03*
X159360Y730250D03*
X140360Y730250D03*
X140360Y703580D03*
X159360Y703580D03*
X161900Y570230D03*
X142900Y570230D03*
D10*
X215900Y595020D03*
X215900Y614020D03*
D11*
X274930Y730250D03*
X255930Y730250D03*
X255930Y703580D03*
X274930Y703580D03*
X269850Y570230D03*
X250850Y570230D03*
D10*
X331470Y595020D03*
X331470Y614020D03*
D12*
X148590Y637540D03*
D13*
X158340Y620290D03*
X151840Y620290D03*
X145340Y620290D03*
X138840Y620290D03*
D14*
X131340Y627790D03*
X131340Y634290D03*
X131340Y640790D03*
X131340Y647290D03*
D13*
X138840Y654790D03*
X145340Y654790D03*
X151840Y654790D03*
X158340Y654790D03*
D14*
X165840Y647290D03*
X165840Y640790D03*
X165840Y634290D03*
X165840Y627790D03*
D12*
X264160Y638810D03*
D13*
X273910Y621560D03*
X267410Y621560D03*
X260910Y621560D03*
X254410Y621560D03*
D14*
X246910Y629060D03*
X246910Y635560D03*
X246910Y642060D03*
X246910Y648560D03*
D13*
X254410Y656060D03*
X260910Y656060D03*
X267410Y656060D03*
X273910Y656060D03*
D14*
X281410Y648560D03*
X281410Y642060D03*
X281410Y635560D03*
X281410Y629060D03*
D12*
X379730Y638810D03*
D13*
X389480Y621560D03*
X382980Y621560D03*
X376480Y621560D03*
X369980Y621560D03*
D14*
X362480Y629060D03*
X362480Y635560D03*
X362480Y642060D03*
X362480Y648560D03*
D13*
X369980Y656060D03*
X376480Y656060D03*
X382980Y656060D03*
X389480Y656060D03*
D14*
X396980Y648560D03*
X396980Y642060D03*
X396980Y635560D03*
X396980Y629060D03*
D15*
X66040Y40640D03*
X40640Y40640D03*
X66040Y66040D03*
X40640Y66040D03*
X66040Y91440D03*
X40640Y91440D03*
X66040Y116840D03*
X40640Y116840D03*
X66040Y142240D03*
X40640Y142240D03*
X66040Y167640D03*
X40640Y167640D03*
X66040Y193040D03*
X40640Y193040D03*
X66040Y218440D03*
X40640Y218440D03*
X66040Y243840D03*
X40640Y243840D03*
X66040Y269240D03*
X40640Y269240D03*
X66040Y294640D03*
X40640Y294640D03*
X66040Y320040D03*
X40640Y320040D03*
X66040Y345440D03*
X40640Y345440D03*
X66040Y370840D03*
X40640Y370840D03*
X66040Y396240D03*
X40640Y396240D03*
X66040Y421640D03*
X40640Y421640D03*
X66040Y447040D03*
X40640Y447040D03*
X66040Y472440D03*
X40640Y472440D03*
X66040Y497840D03*
X40640Y497840D03*
X66040Y523240D03*
X40640Y523240D03*
D10*
X99060Y713080D03*
X99060Y694080D03*
X99060Y663550D03*
X99060Y644550D03*
X215900Y713080D03*
X215900Y694080D03*
X215900Y663550D03*
X215900Y644550D03*
X331470Y713080D03*
X331470Y694080D03*
X331470Y663550D03*
X331470Y644550D03*
D16*
X363982Y812800D02*
X363982Y828040D01*
X338582Y828040D02*
X338582Y812800D01*
X313182Y812800D02*
X313182Y828040D01*
X287782Y828040D02*
X287782Y812800D01*
X262382Y812800D02*
X262382Y828040D01*
X236982Y828040D02*
X236982Y812800D01*
X211582Y812800D02*
X211582Y828040D01*
X186182Y828040D02*
X186182Y812800D01*
X236982Y501650D02*
X236982Y486410D01*
X262382Y486410D02*
X262382Y501650D01*
X287782Y501650D02*
X287782Y486410D01*
X313182Y486410D02*
X313182Y501650D01*
X53340Y762000D02*
X38100Y762000D01*
X38100Y736600D02*
X53340Y736600D01*
X53340Y711200D02*
X38100Y711200D01*
X495300Y711200D02*
X510540Y711200D01*
X510540Y736600D02*
X495300Y736600D01*
X495300Y762000D02*
X510540Y762000D01*
X378460Y501650D02*
X378460Y486410D01*
X403860Y486410D02*
X403860Y501650D01*
X429260Y501650D02*
X429260Y486410D01*
X378460Y426720D02*
X378460Y411480D01*
X403860Y411480D02*
X403860Y426720D01*
X429260Y426720D02*
X429260Y411480D01*
X454660Y411480D02*
X454660Y426720D01*
X116840Y327660D02*
X116840Y312420D01*
X142240Y312420D02*
X142240Y327660D01*
X167640Y327660D02*
X167640Y312420D01*
X116840Y363220D02*
X116840Y378460D01*
X142240Y378460D02*
X142240Y363220D01*
X167640Y363220D02*
X167640Y378460D01*
X116332Y414020D02*
X116332Y429260D01*
X141732Y429260D02*
X141732Y414020D01*
X167132Y414020D02*
X167132Y429260D01*
D17*
X115570Y273050D03*
X167894Y271526D03*
D16*
X505460Y336550D02*
X505460Y351790D01*
X480060Y351790D02*
X480060Y336550D01*
X454660Y336550D02*
X454660Y351790D01*
X429260Y351790D02*
X429260Y336550D01*
X403860Y336550D02*
X403860Y351790D01*
X378460Y351790D02*
X378460Y336550D01*
X353060Y336550D02*
X353060Y351790D01*
D18*
X281051Y414909D03*
D19*
X317500Y378460D01*
X335280Y378460D01*
X353060Y360680D01*
X353060Y344170D01*
D18*
X149860Y133350D03*
D20*
X480060Y317500D02*
X480060Y344170D01*
X295910Y133350D02*
X149860Y133350D01*
X295910Y133350D02*
X480060Y317500D01*
D21*
X138840Y654790D02*
X134090Y654790D01*
X131340Y652040D02*
X131340Y647290D01*
X131340Y652040D02*
X134090Y654790D01*
X134090Y674900D01*
X132080Y676910D01*
D18*
X132080Y676910D03*
X186690Y612140D03*
D21*
X158340Y616360D02*
X158340Y620290D01*
X162560Y612140D02*
X186690Y612140D01*
X162560Y612140D02*
X158340Y616360D01*
X161900Y570230D02*
X173990Y570230D01*
X186690Y582930D01*
X186690Y612140D01*
D19*
X429260Y494030D02*
X454660Y468630D01*
X454660Y419100D01*
D20*
X454660Y468630D02*
X195580Y468630D01*
X68580Y595630D01*
D18*
X68580Y595630D03*
D20*
X61214Y762000D02*
X45720Y762000D01*
X68580Y754634D02*
X68580Y595630D01*
X68580Y754634D02*
X61214Y762000D01*
D19*
X505460Y368300D02*
X505460Y344170D01*
X505460Y368300D02*
X454660Y419100D01*
D21*
X99060Y614020D02*
X78740Y634340D01*
X99060Y663550D02*
X95250Y667360D01*
X84430Y667360D01*
X78740Y661670D02*
X78740Y634340D01*
X78740Y661670D02*
X84430Y667360D01*
X113030Y760730D02*
X199390Y760730D01*
X113030Y760730D02*
X78740Y726440D01*
X78740Y661670D01*
X236982Y798322D02*
X236982Y820420D01*
X236982Y798322D02*
X199390Y760730D01*
X119990Y713080D02*
X99060Y713080D01*
X119990Y713080D02*
X137160Y730250D01*
X140360Y730250D01*
X151130Y748030D02*
X217170Y748030D01*
X151130Y748030D02*
X140360Y737260D01*
X140360Y730250D01*
X262382Y793242D02*
X262382Y820420D01*
X262382Y793242D02*
X217170Y748030D01*
X131190Y640940D02*
X131340Y640790D01*
X131190Y640940D02*
X121150Y640940D01*
X116885Y645205D01*
X116885Y681945D01*
X104750Y694080D02*
X99060Y694080D01*
X104750Y694080D02*
X116885Y681945D01*
X108560Y644550D02*
X99060Y644550D01*
X118820Y634290D02*
X131340Y634290D01*
X118820Y634290D02*
X108560Y644550D01*
X376480Y656060D02*
X376480Y662230D01*
X381660Y667410D01*
X381660Y703580D01*
X393700Y679450D02*
X381660Y667410D01*
X393700Y679450D02*
X400050Y679450D01*
D18*
X400050Y679450D03*
D21*
X260910Y663500D02*
X260910Y656060D01*
X273050Y675640D02*
X278130Y675640D01*
X273050Y675640D02*
X260910Y663500D01*
D18*
X278130Y675640D03*
D21*
X255930Y697840D02*
X255930Y703580D01*
X255930Y697840D02*
X278130Y675640D01*
X145518Y654968D02*
X145340Y654790D01*
X145518Y654968D02*
X145518Y660184D01*
X156933Y671598D02*
X156933Y676910D01*
D18*
X156933Y676910D03*
D21*
X156933Y671598D02*
X145518Y660184D01*
X140360Y693483D02*
X140360Y703580D01*
X140360Y693483D02*
X156933Y676910D01*
X165840Y647290D02*
X171040Y647290D01*
X159360Y703580D02*
X159360Y730250D01*
X281410Y648560D02*
X287880Y648560D01*
X376480Y621560D02*
X376480Y610160D01*
X371500Y605180D02*
X371500Y594360D01*
X371500Y605180D02*
X376480Y610160D01*
X396980Y648560D02*
X405990Y648560D01*
D18*
X429260Y679450D03*
X351790Y565150D03*
D21*
X371500Y584860D01*
X371500Y594360D01*
X331470Y595020D02*
X331470Y585470D01*
X351790Y565150D01*
X443230Y565150D01*
X477520Y599440D01*
X477520Y637540D01*
X274930Y703580D02*
X274930Y730250D01*
X400660Y730250D02*
X400660Y703580D01*
X429260Y679450D02*
X429260Y671830D01*
X408940Y651510D02*
X405990Y648560D01*
X429260Y679450D02*
X405130Y703580D01*
X400660Y703580D01*
D18*
X299114Y692150D03*
D21*
X299114Y659794D01*
X287880Y648560D01*
X287684Y703580D02*
X274930Y703580D01*
X287684Y703580D02*
X299114Y692150D01*
X351790Y565150D02*
X340360Y553720D01*
X265430Y553720D01*
X251460Y567690D01*
X251460Y569620D01*
X250850Y570230D01*
X257888Y613488D02*
X258054Y613488D01*
X260910Y616344D02*
X260910Y621560D01*
X260910Y616344D02*
X258054Y613488D01*
X247040Y602640D02*
X247040Y574040D01*
X250850Y570230D01*
X247040Y602640D02*
X257888Y613488D01*
X215900Y595020D02*
X240690Y570230D01*
X250850Y570230D01*
X265430Y553720D02*
X148590Y553720D01*
X142900Y559410D02*
X142900Y570230D01*
X142900Y559410D02*
X148590Y553720D01*
X142900Y570230D02*
X123850Y570230D01*
X99060Y595020D01*
X145340Y591820D02*
X145340Y620290D01*
X145340Y591820D02*
X145340Y572670D01*
X142900Y570230D01*
X145340Y591820D02*
X137720Y599440D01*
X127000Y599440D01*
D18*
X127000Y599440D03*
X179734Y673100D03*
D21*
X179734Y683206D02*
X159360Y703580D01*
X179734Y683206D02*
X179734Y673100D01*
X179734Y655984D02*
X171040Y647290D01*
X179734Y655984D02*
X179734Y673100D01*
X408940Y651600D02*
X408940Y651510D01*
X408940Y651600D02*
X417740Y660400D01*
X417830Y660400D01*
X429260Y671830D01*
X502920Y662940D02*
X502920Y711200D01*
X502920Y662940D02*
X477520Y637540D01*
X254410Y656060D02*
X249660Y656060D01*
X246910Y653310D02*
X246910Y648560D01*
X246910Y653310D02*
X249660Y656060D01*
X249660Y674900D01*
X248920Y675640D01*
D18*
X248920Y675640D03*
D21*
X298450Y587400D02*
X281280Y570230D01*
X269850Y570230D01*
X298450Y587400D02*
X298450Y595630D01*
D18*
X298450Y595630D03*
D21*
X273910Y618900D02*
X273910Y621560D01*
X297180Y595630D02*
X298450Y595630D01*
X297180Y595630D02*
X273910Y618900D01*
X215900Y614020D02*
X195580Y634340D01*
X202540Y663550D02*
X215900Y663550D01*
X195580Y656590D02*
X195580Y634340D01*
X195580Y656590D02*
X202540Y663550D01*
X208280Y731520D02*
X231140Y731520D01*
X208280Y731520D02*
X195580Y718820D01*
X195580Y656590D01*
X287782Y788162D02*
X287782Y820420D01*
X287782Y788162D02*
X231140Y731520D01*
X229210Y713080D02*
X215900Y713080D01*
X267342Y742322D02*
X313182Y788162D01*
X313182Y820420D01*
X267342Y742322D02*
X266536Y742322D01*
X255930Y731716D01*
X255930Y730250D01*
X255930Y731716D02*
X247846Y731716D01*
X229210Y713080D01*
X239320Y642060D02*
X246910Y642060D01*
X229870Y680110D02*
X215900Y694080D01*
X229870Y651510D02*
X239320Y642060D01*
X229870Y651510D02*
X229870Y680110D01*
X233120Y635560D02*
X246910Y635560D01*
X224130Y644550D02*
X215900Y644550D01*
X224130Y644550D02*
X233120Y635560D01*
X365230Y656060D02*
X369980Y656060D01*
X362480Y653310D02*
X362480Y648560D01*
X362480Y653310D02*
X365230Y656060D01*
X389480Y621560D02*
X389480Y616360D01*
X391160Y614680D01*
X401320Y614680D01*
X415290Y628650D02*
X430530Y628650D01*
D18*
X430530Y628650D03*
D21*
X415290Y628650D02*
X401320Y614680D01*
X365230Y656060D02*
X365230Y678920D01*
X365760Y679450D01*
D18*
X365760Y679450D03*
D21*
X426720Y594360D02*
X430530Y590550D01*
D18*
X430530Y590550D03*
D21*
X426720Y594360D02*
X390500Y594360D01*
X331470Y614020D02*
X313690Y631800D01*
X318110Y663550D02*
X331470Y663550D01*
X313690Y659130D02*
X313690Y631800D01*
X313690Y659130D02*
X318110Y663550D01*
X313690Y659130D02*
X313690Y753110D01*
X338582Y778002D02*
X338582Y820420D01*
X338582Y778002D02*
X313690Y753110D01*
X331470Y713080D02*
X334620Y713080D01*
X351790Y730250D02*
X381660Y730250D01*
X351790Y730250D02*
X334620Y713080D01*
X363982Y792988D02*
X363982Y820420D01*
X363982Y792988D02*
X382270Y774700D01*
X382270Y730860D01*
X381660Y730250D01*
X362480Y642060D02*
X354890Y642060D01*
X347980Y648970D02*
X347980Y683260D01*
X337160Y694080D01*
X331470Y694080D01*
X347980Y648970D02*
X354890Y642060D01*
X348690Y635560D02*
X362480Y635560D01*
X339700Y644550D02*
X331470Y644550D01*
X339700Y644550D02*
X348690Y635560D01*
D18*
X299720Y622300D03*
D21*
X289482Y632538D02*
X289482Y632704D01*
X289482Y632538D02*
X299720Y622300D01*
X286626Y635560D02*
X281410Y635560D01*
X286626Y635560D02*
X289482Y632704D01*
X267410Y621560D02*
X267410Y600000D01*
X270510Y596900D01*
D18*
X270510Y596900D03*
X322580Y118110D03*
D19*
X386080Y181610D02*
X482600Y181610D01*
X386080Y181610D02*
X322580Y118110D01*
D18*
X482600Y181610D03*
D20*
X134620Y189230D02*
X106680Y161290D01*
X99060Y161290D01*
D18*
X99060Y161290D03*
D20*
X429260Y322580D02*
X429260Y344170D01*
X429260Y322580D02*
X295910Y189230D01*
X134620Y189230D01*
X180340Y454660D02*
X403860Y454660D01*
X180340Y454660D02*
X87122Y547878D01*
X22860Y612140D01*
X403860Y454660D02*
X429260Y429260D01*
X429260Y419100D01*
D18*
X95250Y246634D03*
D20*
X95250Y431800D01*
X87122Y439928D01*
X87122Y547878D01*
D19*
X429260Y419100D02*
X429260Y398780D01*
X411480Y381000D01*
X391160Y381000D01*
X378460Y368300D01*
X378460Y344170D01*
D20*
X22860Y612140D02*
X22860Y723900D01*
X35560Y736600D02*
X45720Y736600D01*
X35560Y736600D02*
X22860Y723900D01*
D18*
X110490Y210820D03*
D20*
X135890Y210820D01*
X271780Y346710D01*
D18*
X271780Y346710D03*
D21*
X151840Y606350D02*
X151840Y620290D01*
X151840Y606350D02*
X163830Y594360D01*
D18*
X163830Y594360D03*
D21*
X382980Y611430D02*
X382980Y621560D01*
X382980Y611430D02*
X386080Y608330D01*
X450850Y608330D01*
X464820Y622300D01*
X464820Y651510D01*
X480060Y666750D01*
X480060Y728218D01*
X488442Y736600D02*
X502920Y736600D01*
X488442Y736600D02*
X480060Y728218D01*
X450850Y685800D02*
X450850Y665480D01*
X450850Y685800D02*
X457200Y692150D01*
X408230Y635560D02*
X396980Y635560D01*
X408230Y635560D02*
X426720Y654050D01*
X439420Y654050D01*
X450850Y665480D01*
X457200Y692150D02*
X457200Y740664D01*
X478536Y762000D02*
X502920Y762000D01*
X478536Y762000D02*
X457200Y740664D01*
D18*
X109220Y459740D03*
D20*
X403860Y344170D02*
X403860Y327660D01*
X381000Y304800D01*
X347980Y304800D01*
X142240Y459740D02*
X109220Y459740D01*
X208280Y444500D02*
X347980Y304800D01*
X208280Y444500D02*
X157480Y444500D01*
X142240Y459740D01*
X454660Y344170D02*
X454660Y317500D01*
X139700Y160020D02*
X109220Y129540D01*
D18*
X109220Y129540D03*
D20*
X297180Y160020D02*
X454660Y317500D01*
X297180Y160020D02*
X139700Y160020D01*
M02*
