M48
;GenerationSoftware,Autodesk,EAGLE,9.2.2*%
;CreationDate,2019-08-22T07:53:52Z*%
FMAT,2
ICI,OFF
METRIC,TZ,000.000
T2C0.800
T1C1.016
%
G90
M71
T1
X4572Y71120
X50292Y71120
X50292Y73660
X50292Y76200
X37846Y49403
X40386Y49403
X42926Y49403
X37846Y41910
X40386Y41910
X42926Y41910
X45466Y41910
X11684Y32004
X14224Y32004
X16764Y32004
X4064Y37084
X14224Y37084
X16764Y37084
X11633Y42164
X14173Y42164
X16713Y42164
X11557Y27305
X16789Y27153
X50546Y34417
X48006Y34417
X45466Y34417
X42926Y34417
X40386Y34417
X37846Y34417
X35306Y34417
X6604Y4064
X4064Y4064
X6604Y6604
X4064Y6604
X6604Y9144
X4064Y9144
X6604Y11684
X4064Y11684
X6604Y14224
X4064Y14224
X6604Y16764
X4064Y16764
X6604Y19304
X4064Y19304
X6604Y21844
X4064Y21844
X6604Y24384
X4064Y24384
X6604Y26924
X4064Y26924
X6604Y29464
X4064Y29464
X6604Y32004
X4064Y32004
X6604Y34544
X4064Y34544
X6604Y37084
X11684Y37084
X6604Y39624
X4064Y39624
X6604Y42164
X4064Y42164
X6604Y44704
X4064Y44704
X6604Y47244
X4064Y47244
X6604Y49784
X4064Y49784
X6604Y52324
X4064Y52324
X36398Y82042
X33858Y82042
X31318Y82042
X28778Y82042
X26238Y82042
X23698Y82042
X21158Y82042
X18618Y82042
X23698Y49403
X26238Y49403
X28778Y49403
X31318Y49403
X4572Y76200
X4572Y73660
T2
X28105Y41491
X14986Y13335
X13208Y67691
X18669Y61214
X6858Y59563
X40005Y67945
X27813Y67564
X15693Y67691
X42926Y67945
X35179Y56515
X29911Y69215
X12700Y59944
X17973Y67310
X24892Y67564
X43053Y62865
X36576Y67945
X43053Y59055
X29972Y62230
X27051Y59690
X32258Y11811
X48260Y18161
X9906Y16129
X9525Y24663
X11049Y21082
X27178Y34671
X16383Y59436
X10922Y45974
X10922Y12954
X29845Y59563
M30