G04 EAGLE Gerber RS-274X export*
G75*
%MOMM*%
%FSLAX34Y34*%
%LPD*%
%INSoldermask Bottom*%
%IPPOS*%
%AMOC8*
5,1,8,0,0,1.08239X$1,22.5*%
G01*
%ADD10R,1.703200X1.503200*%
%ADD11R,1.503200X1.703200*%
%ADD12R,0.400000X0.850000*%
%ADD13R,0.850000X0.400000*%
%ADD14P,1.869504X8X112.500000*%
%ADD15C,1.727200*%
%ADD16P,1.869504X8X22.500000*%
%ADD17C,2.203959*%

G36*
X386178Y628028D02*
X386178Y628028D01*
X386277Y628031D01*
X386335Y628048D01*
X386396Y628056D01*
X386488Y628092D01*
X386583Y628120D01*
X386635Y628150D01*
X386691Y628173D01*
X386771Y628231D01*
X386857Y628281D01*
X386932Y628347D01*
X386949Y628359D01*
X386956Y628369D01*
X386978Y628388D01*
X390153Y631563D01*
X390213Y631641D01*
X390281Y631713D01*
X390310Y631766D01*
X390347Y631814D01*
X390387Y631905D01*
X390435Y631991D01*
X390450Y632050D01*
X390474Y632106D01*
X390489Y632204D01*
X390514Y632299D01*
X390520Y632399D01*
X390524Y632420D01*
X390522Y632432D01*
X390524Y632460D01*
X390524Y648335D01*
X390509Y648453D01*
X390502Y648572D01*
X390489Y648610D01*
X390484Y648651D01*
X390441Y648761D01*
X390404Y648874D01*
X390382Y648909D01*
X390367Y648946D01*
X390298Y649042D01*
X390234Y649143D01*
X390204Y649171D01*
X390181Y649204D01*
X390089Y649280D01*
X390002Y649361D01*
X389967Y649381D01*
X389936Y649406D01*
X389828Y649457D01*
X389724Y649515D01*
X389684Y649525D01*
X389648Y649542D01*
X389531Y649564D01*
X389416Y649594D01*
X389356Y649598D01*
X389336Y649602D01*
X389315Y649600D01*
X389255Y649604D01*
X370205Y649604D01*
X370087Y649589D01*
X369968Y649582D01*
X369930Y649569D01*
X369889Y649564D01*
X369779Y649521D01*
X369666Y649484D01*
X369631Y649462D01*
X369594Y649447D01*
X369498Y649378D01*
X369397Y649314D01*
X369369Y649284D01*
X369336Y649261D01*
X369261Y649169D01*
X369179Y649082D01*
X369159Y649047D01*
X369134Y649016D01*
X369083Y648908D01*
X369025Y648804D01*
X369015Y648764D01*
X368998Y648728D01*
X368976Y648611D01*
X368946Y648496D01*
X368942Y648436D01*
X368938Y648416D01*
X368939Y648407D01*
X368938Y648404D01*
X368939Y648390D01*
X368936Y648335D01*
X368936Y629285D01*
X368951Y629167D01*
X368958Y629048D01*
X368971Y629010D01*
X368976Y628969D01*
X369019Y628859D01*
X369056Y628746D01*
X369078Y628711D01*
X369093Y628674D01*
X369163Y628578D01*
X369226Y628477D01*
X369256Y628449D01*
X369279Y628416D01*
X369371Y628341D01*
X369458Y628259D01*
X369493Y628239D01*
X369524Y628214D01*
X369632Y628163D01*
X369736Y628105D01*
X369776Y628095D01*
X369812Y628078D01*
X369929Y628056D01*
X370044Y628026D01*
X370105Y628022D01*
X370125Y628018D01*
X370145Y628020D01*
X370205Y628016D01*
X386080Y628016D01*
X386178Y628028D01*
G37*
G36*
X270608Y628028D02*
X270608Y628028D01*
X270707Y628031D01*
X270765Y628048D01*
X270826Y628056D01*
X270918Y628092D01*
X271013Y628120D01*
X271065Y628150D01*
X271121Y628173D01*
X271201Y628231D01*
X271287Y628281D01*
X271362Y628347D01*
X271379Y628359D01*
X271386Y628369D01*
X271408Y628388D01*
X274583Y631563D01*
X274643Y631641D01*
X274711Y631713D01*
X274740Y631766D01*
X274777Y631814D01*
X274817Y631905D01*
X274865Y631991D01*
X274880Y632050D01*
X274904Y632106D01*
X274919Y632204D01*
X274944Y632299D01*
X274950Y632399D01*
X274954Y632420D01*
X274952Y632432D01*
X274954Y632460D01*
X274954Y648335D01*
X274939Y648453D01*
X274932Y648572D01*
X274919Y648610D01*
X274914Y648651D01*
X274871Y648761D01*
X274834Y648874D01*
X274812Y648909D01*
X274797Y648946D01*
X274728Y649042D01*
X274664Y649143D01*
X274634Y649171D01*
X274611Y649204D01*
X274519Y649280D01*
X274432Y649361D01*
X274397Y649381D01*
X274366Y649406D01*
X274258Y649457D01*
X274154Y649515D01*
X274114Y649525D01*
X274078Y649542D01*
X273961Y649564D01*
X273846Y649594D01*
X273786Y649598D01*
X273766Y649602D01*
X273745Y649600D01*
X273685Y649604D01*
X254635Y649604D01*
X254517Y649589D01*
X254398Y649582D01*
X254360Y649569D01*
X254319Y649564D01*
X254209Y649521D01*
X254096Y649484D01*
X254061Y649462D01*
X254024Y649447D01*
X253928Y649378D01*
X253827Y649314D01*
X253799Y649284D01*
X253766Y649261D01*
X253691Y649169D01*
X253609Y649082D01*
X253589Y649047D01*
X253564Y649016D01*
X253513Y648908D01*
X253455Y648804D01*
X253445Y648764D01*
X253428Y648728D01*
X253406Y648611D01*
X253376Y648496D01*
X253372Y648436D01*
X253368Y648416D01*
X253369Y648407D01*
X253368Y648404D01*
X253369Y648390D01*
X253366Y648335D01*
X253366Y629285D01*
X253381Y629167D01*
X253388Y629048D01*
X253401Y629010D01*
X253406Y628969D01*
X253449Y628859D01*
X253486Y628746D01*
X253508Y628711D01*
X253523Y628674D01*
X253593Y628578D01*
X253656Y628477D01*
X253686Y628449D01*
X253709Y628416D01*
X253801Y628341D01*
X253888Y628259D01*
X253923Y628239D01*
X253954Y628214D01*
X254062Y628163D01*
X254166Y628105D01*
X254206Y628095D01*
X254242Y628078D01*
X254359Y628056D01*
X254474Y628026D01*
X254535Y628022D01*
X254555Y628018D01*
X254575Y628020D01*
X254635Y628016D01*
X270510Y628016D01*
X270608Y628028D01*
G37*
G36*
X155038Y626758D02*
X155038Y626758D01*
X155137Y626761D01*
X155195Y626778D01*
X155256Y626786D01*
X155348Y626822D01*
X155443Y626850D01*
X155495Y626880D01*
X155551Y626903D01*
X155631Y626961D01*
X155717Y627011D01*
X155792Y627077D01*
X155809Y627089D01*
X155816Y627099D01*
X155838Y627118D01*
X159013Y630293D01*
X159073Y630371D01*
X159141Y630443D01*
X159170Y630496D01*
X159207Y630544D01*
X159247Y630635D01*
X159295Y630721D01*
X159310Y630780D01*
X159334Y630836D01*
X159349Y630934D01*
X159374Y631029D01*
X159380Y631129D01*
X159384Y631150D01*
X159382Y631162D01*
X159384Y631190D01*
X159384Y647065D01*
X159369Y647183D01*
X159362Y647302D01*
X159349Y647340D01*
X159344Y647381D01*
X159301Y647491D01*
X159264Y647604D01*
X159242Y647639D01*
X159227Y647676D01*
X159158Y647772D01*
X159094Y647873D01*
X159064Y647901D01*
X159041Y647934D01*
X158949Y648010D01*
X158862Y648091D01*
X158827Y648111D01*
X158796Y648136D01*
X158688Y648187D01*
X158584Y648245D01*
X158544Y648255D01*
X158508Y648272D01*
X158391Y648294D01*
X158276Y648324D01*
X158216Y648328D01*
X158196Y648332D01*
X158175Y648330D01*
X158115Y648334D01*
X139065Y648334D01*
X138947Y648319D01*
X138828Y648312D01*
X138790Y648299D01*
X138749Y648294D01*
X138639Y648251D01*
X138526Y648214D01*
X138491Y648192D01*
X138454Y648177D01*
X138358Y648108D01*
X138257Y648044D01*
X138229Y648014D01*
X138196Y647991D01*
X138121Y647899D01*
X138039Y647812D01*
X138019Y647777D01*
X137994Y647746D01*
X137943Y647638D01*
X137885Y647534D01*
X137875Y647494D01*
X137858Y647458D01*
X137836Y647341D01*
X137806Y647226D01*
X137802Y647166D01*
X137798Y647146D01*
X137799Y647137D01*
X137798Y647134D01*
X137799Y647120D01*
X137796Y647065D01*
X137796Y628015D01*
X137811Y627897D01*
X137818Y627778D01*
X137831Y627740D01*
X137836Y627699D01*
X137879Y627589D01*
X137916Y627476D01*
X137938Y627441D01*
X137953Y627404D01*
X138023Y627308D01*
X138086Y627207D01*
X138116Y627179D01*
X138139Y627146D01*
X138231Y627071D01*
X138318Y626989D01*
X138353Y626969D01*
X138384Y626944D01*
X138492Y626893D01*
X138596Y626835D01*
X138636Y626825D01*
X138672Y626808D01*
X138789Y626786D01*
X138904Y626756D01*
X138965Y626752D01*
X138985Y626748D01*
X139005Y626750D01*
X139065Y626746D01*
X154940Y626746D01*
X155038Y626758D01*
G37*
D10*
X99060Y595020D03*
X99060Y614020D03*
D11*
X400660Y730250D03*
X381660Y730250D03*
X381660Y703580D03*
X400660Y703580D03*
X390500Y594360D03*
X371500Y594360D03*
X159360Y730250D03*
X140360Y730250D03*
X140360Y703580D03*
X159360Y703580D03*
X161900Y570230D03*
X142900Y570230D03*
D10*
X215900Y595020D03*
X215900Y614020D03*
D11*
X274930Y730250D03*
X255930Y730250D03*
X255930Y703580D03*
X274930Y703580D03*
X269850Y570230D03*
X250850Y570230D03*
D10*
X331470Y595020D03*
X331470Y614020D03*
D12*
X158340Y620290D03*
X151840Y620290D03*
X145340Y620290D03*
X138840Y620290D03*
D13*
X131340Y627790D03*
X131340Y634290D03*
X131340Y640790D03*
X131340Y647290D03*
D12*
X138840Y654790D03*
X145340Y654790D03*
X151840Y654790D03*
X158340Y654790D03*
D13*
X165840Y647290D03*
X165840Y640790D03*
X165840Y634290D03*
X165840Y627790D03*
D12*
X273910Y621560D03*
X267410Y621560D03*
X260910Y621560D03*
X254410Y621560D03*
D13*
X246910Y629060D03*
X246910Y635560D03*
X246910Y642060D03*
X246910Y648560D03*
D12*
X254410Y656060D03*
X260910Y656060D03*
X267410Y656060D03*
X273910Y656060D03*
D13*
X281410Y648560D03*
X281410Y642060D03*
X281410Y635560D03*
X281410Y629060D03*
D12*
X389480Y621560D03*
X382980Y621560D03*
X376480Y621560D03*
X369980Y621560D03*
D13*
X362480Y629060D03*
X362480Y635560D03*
X362480Y642060D03*
X362480Y648560D03*
D12*
X369980Y656060D03*
X376480Y656060D03*
X382980Y656060D03*
X389480Y656060D03*
D13*
X396980Y648560D03*
X396980Y642060D03*
X396980Y635560D03*
X396980Y629060D03*
D14*
X66040Y40640D03*
X40640Y40640D03*
X66040Y66040D03*
X40640Y66040D03*
X66040Y91440D03*
X40640Y91440D03*
X66040Y116840D03*
X40640Y116840D03*
X66040Y142240D03*
X40640Y142240D03*
X66040Y167640D03*
X40640Y167640D03*
X66040Y193040D03*
X40640Y193040D03*
X66040Y218440D03*
X40640Y218440D03*
X66040Y243840D03*
X40640Y243840D03*
X66040Y269240D03*
X40640Y269240D03*
X66040Y294640D03*
X40640Y294640D03*
X66040Y320040D03*
X40640Y320040D03*
X66040Y345440D03*
X40640Y345440D03*
X66040Y370840D03*
X40640Y370840D03*
X66040Y396240D03*
X40640Y396240D03*
X66040Y421640D03*
X40640Y421640D03*
X66040Y447040D03*
X40640Y447040D03*
X66040Y472440D03*
X40640Y472440D03*
X66040Y497840D03*
X40640Y497840D03*
X66040Y523240D03*
X40640Y523240D03*
D10*
X99060Y713080D03*
X99060Y694080D03*
X99060Y663550D03*
X99060Y644550D03*
X215900Y713080D03*
X215900Y694080D03*
X215900Y663550D03*
X215900Y644550D03*
X331470Y713080D03*
X331470Y694080D03*
X331470Y663550D03*
X331470Y644550D03*
D15*
X363982Y812800D02*
X363982Y828040D01*
X338582Y828040D02*
X338582Y812800D01*
X313182Y812800D02*
X313182Y828040D01*
X287782Y828040D02*
X287782Y812800D01*
X262382Y812800D02*
X262382Y828040D01*
X236982Y828040D02*
X236982Y812800D01*
X211582Y812800D02*
X211582Y828040D01*
X186182Y828040D02*
X186182Y812800D01*
X236982Y501650D02*
X236982Y486410D01*
X262382Y486410D02*
X262382Y501650D01*
X287782Y501650D02*
X287782Y486410D01*
X313182Y486410D02*
X313182Y501650D01*
X53340Y762000D02*
X38100Y762000D01*
X38100Y736600D02*
X53340Y736600D01*
X53340Y711200D02*
X38100Y711200D01*
X495300Y711200D02*
X510540Y711200D01*
X510540Y736600D02*
X495300Y736600D01*
X495300Y762000D02*
X510540Y762000D01*
X378460Y501650D02*
X378460Y486410D01*
X403860Y486410D02*
X403860Y501650D01*
X429260Y501650D02*
X429260Y486410D01*
X378460Y426720D02*
X378460Y411480D01*
X403860Y411480D02*
X403860Y426720D01*
X429260Y426720D02*
X429260Y411480D01*
X454660Y411480D02*
X454660Y426720D01*
X116840Y327660D02*
X116840Y312420D01*
X142240Y312420D02*
X142240Y327660D01*
X167640Y327660D02*
X167640Y312420D01*
X116840Y363220D02*
X116840Y378460D01*
X142240Y378460D02*
X142240Y363220D01*
X167640Y363220D02*
X167640Y378460D01*
X116332Y414020D02*
X116332Y429260D01*
X141732Y429260D02*
X141732Y414020D01*
X167132Y414020D02*
X167132Y429260D01*
D16*
X115570Y273050D03*
X167894Y271526D03*
D15*
X505460Y336550D02*
X505460Y351790D01*
X480060Y351790D02*
X480060Y336550D01*
X454660Y336550D02*
X454660Y351790D01*
X429260Y351790D02*
X429260Y336550D01*
X403860Y336550D02*
X403860Y351790D01*
X378460Y351790D02*
X378460Y336550D01*
X353060Y336550D02*
X353060Y351790D01*
D17*
X281051Y414909D03*
X149860Y133350D03*
X132080Y676910D03*
X186690Y612140D03*
X68580Y595630D03*
X400050Y679450D03*
X278130Y675640D03*
X156933Y676910D03*
X429260Y679450D03*
X351790Y565150D03*
X299114Y692150D03*
X127000Y599440D03*
X179734Y673100D03*
X248920Y675640D03*
X298450Y595630D03*
X430530Y628650D03*
X365760Y679450D03*
X430530Y590550D03*
X299720Y622300D03*
X270510Y596900D03*
X322580Y118110D03*
X482600Y181610D03*
X99060Y161290D03*
X95250Y246634D03*
X110490Y210820D03*
X271780Y346710D03*
X163830Y594360D03*
X109220Y459740D03*
X109220Y129540D03*
M02*
