G04 EAGLE Gerber RS-274X export*
G75*
%MOMM*%
%FSLAX34Y34*%
%LPD*%
%INSolderpaste Bottom*%
%IPPOS*%
%AMOC8*
5,1,8,0,0,1.08239X$1,22.5*%
G01*
%ADD10R,1.500000X1.300000*%
%ADD11R,1.300000X1.500000*%
%ADD12R,1.000000X1.000000*%
%ADD13R,0.350000X0.700000*%
%ADD14R,0.700000X0.350000*%

G36*
X386176Y628552D02*
X386176Y628552D01*
X386273Y628561D01*
X386296Y628571D01*
X386321Y628575D01*
X386407Y628621D01*
X386496Y628662D01*
X386521Y628683D01*
X386536Y628690D01*
X386553Y628709D01*
X386610Y628755D01*
X389785Y631930D01*
X389842Y632010D01*
X389904Y632085D01*
X389912Y632108D01*
X389927Y632129D01*
X389955Y632222D01*
X389990Y632313D01*
X389993Y632346D01*
X389998Y632362D01*
X389997Y632387D01*
X390004Y632460D01*
X390004Y648335D01*
X390000Y648359D01*
X390003Y648384D01*
X389981Y648479D01*
X389965Y648576D01*
X389953Y648597D01*
X389947Y648621D01*
X389896Y648705D01*
X389850Y648791D01*
X389832Y648808D01*
X389819Y648829D01*
X389743Y648891D01*
X389672Y648958D01*
X389649Y648968D01*
X389630Y648984D01*
X389539Y649018D01*
X389449Y649059D01*
X389425Y649061D01*
X389402Y649070D01*
X389255Y649084D01*
X370205Y649084D01*
X370181Y649080D01*
X370156Y649083D01*
X370061Y649061D01*
X369964Y649045D01*
X369943Y649033D01*
X369919Y649027D01*
X369835Y648976D01*
X369749Y648930D01*
X369732Y648912D01*
X369711Y648899D01*
X369649Y648823D01*
X369582Y648752D01*
X369572Y648729D01*
X369557Y648710D01*
X369522Y648619D01*
X369481Y648529D01*
X369479Y648505D01*
X369470Y648482D01*
X369456Y648335D01*
X369456Y629285D01*
X369460Y629261D01*
X369457Y629236D01*
X369480Y629141D01*
X369495Y629044D01*
X369507Y629023D01*
X369513Y628999D01*
X369564Y628915D01*
X369610Y628829D01*
X369628Y628812D01*
X369641Y628791D01*
X369717Y628729D01*
X369789Y628662D01*
X369811Y628652D01*
X369830Y628637D01*
X369921Y628602D01*
X370011Y628561D01*
X370035Y628559D01*
X370058Y628550D01*
X370205Y628536D01*
X386080Y628536D01*
X386176Y628552D01*
G37*
G36*
X270606Y628552D02*
X270606Y628552D01*
X270703Y628561D01*
X270726Y628571D01*
X270751Y628575D01*
X270837Y628621D01*
X270926Y628662D01*
X270951Y628683D01*
X270966Y628690D01*
X270983Y628709D01*
X271040Y628755D01*
X274215Y631930D01*
X274272Y632010D01*
X274334Y632085D01*
X274342Y632108D01*
X274357Y632129D01*
X274385Y632222D01*
X274420Y632313D01*
X274423Y632346D01*
X274428Y632362D01*
X274427Y632387D01*
X274434Y632460D01*
X274434Y648335D01*
X274430Y648359D01*
X274433Y648384D01*
X274411Y648479D01*
X274395Y648576D01*
X274383Y648597D01*
X274377Y648621D01*
X274326Y648705D01*
X274280Y648791D01*
X274262Y648808D01*
X274249Y648829D01*
X274173Y648891D01*
X274102Y648958D01*
X274079Y648968D01*
X274060Y648984D01*
X273969Y649018D01*
X273879Y649059D01*
X273855Y649061D01*
X273832Y649070D01*
X273685Y649084D01*
X254635Y649084D01*
X254611Y649080D01*
X254586Y649083D01*
X254491Y649061D01*
X254394Y649045D01*
X254373Y649033D01*
X254349Y649027D01*
X254265Y648976D01*
X254179Y648930D01*
X254162Y648912D01*
X254141Y648899D01*
X254079Y648823D01*
X254012Y648752D01*
X254002Y648729D01*
X253987Y648710D01*
X253952Y648619D01*
X253911Y648529D01*
X253909Y648505D01*
X253900Y648482D01*
X253886Y648335D01*
X253886Y629285D01*
X253890Y629261D01*
X253887Y629236D01*
X253910Y629141D01*
X253925Y629044D01*
X253937Y629023D01*
X253943Y628999D01*
X253994Y628915D01*
X254040Y628829D01*
X254058Y628812D01*
X254071Y628791D01*
X254147Y628729D01*
X254219Y628662D01*
X254241Y628652D01*
X254260Y628637D01*
X254351Y628602D01*
X254441Y628561D01*
X254465Y628559D01*
X254488Y628550D01*
X254635Y628536D01*
X270510Y628536D01*
X270606Y628552D01*
G37*
G36*
X155036Y627282D02*
X155036Y627282D01*
X155133Y627291D01*
X155156Y627301D01*
X155181Y627305D01*
X155267Y627351D01*
X155356Y627392D01*
X155381Y627413D01*
X155396Y627420D01*
X155413Y627439D01*
X155470Y627485D01*
X158645Y630660D01*
X158702Y630740D01*
X158764Y630815D01*
X158772Y630838D01*
X158787Y630859D01*
X158815Y630952D01*
X158850Y631043D01*
X158853Y631076D01*
X158858Y631092D01*
X158857Y631117D01*
X158864Y631190D01*
X158864Y647065D01*
X158860Y647089D01*
X158863Y647114D01*
X158841Y647209D01*
X158825Y647306D01*
X158813Y647327D01*
X158807Y647351D01*
X158756Y647435D01*
X158710Y647521D01*
X158692Y647538D01*
X158679Y647559D01*
X158603Y647621D01*
X158532Y647688D01*
X158509Y647698D01*
X158490Y647714D01*
X158399Y647748D01*
X158309Y647789D01*
X158285Y647791D01*
X158262Y647800D01*
X158115Y647814D01*
X139065Y647814D01*
X139041Y647810D01*
X139016Y647813D01*
X138921Y647791D01*
X138824Y647775D01*
X138803Y647763D01*
X138779Y647757D01*
X138695Y647706D01*
X138609Y647660D01*
X138592Y647642D01*
X138571Y647629D01*
X138509Y647553D01*
X138442Y647482D01*
X138432Y647459D01*
X138417Y647440D01*
X138382Y647349D01*
X138341Y647259D01*
X138339Y647235D01*
X138330Y647212D01*
X138316Y647065D01*
X138316Y628015D01*
X138320Y627991D01*
X138317Y627966D01*
X138340Y627871D01*
X138355Y627774D01*
X138367Y627753D01*
X138373Y627729D01*
X138424Y627645D01*
X138470Y627559D01*
X138488Y627542D01*
X138501Y627521D01*
X138577Y627459D01*
X138649Y627392D01*
X138671Y627382D01*
X138690Y627367D01*
X138781Y627332D01*
X138871Y627291D01*
X138895Y627289D01*
X138918Y627280D01*
X139065Y627266D01*
X154940Y627266D01*
X155036Y627282D01*
G37*
D10*
X99060Y595020D03*
X99060Y614020D03*
D11*
X400660Y730250D03*
X381660Y730250D03*
X381660Y703580D03*
X400660Y703580D03*
X390500Y594360D03*
X371500Y594360D03*
X159360Y730250D03*
X140360Y730250D03*
X140360Y703580D03*
X159360Y703580D03*
X161900Y570230D03*
X142900Y570230D03*
D10*
X215900Y595020D03*
X215900Y614020D03*
D11*
X274930Y730250D03*
X255930Y730250D03*
X255930Y703580D03*
X274930Y703580D03*
X269850Y570230D03*
X250850Y570230D03*
D10*
X331470Y595020D03*
X331470Y614020D03*
D12*
X148590Y637540D03*
D13*
X158340Y620290D03*
X151840Y620290D03*
X145340Y620290D03*
X138840Y620290D03*
D14*
X131340Y627790D03*
X131340Y634290D03*
X131340Y640790D03*
X131340Y647290D03*
D13*
X138840Y654790D03*
X145340Y654790D03*
X151840Y654790D03*
X158340Y654790D03*
D14*
X165840Y647290D03*
X165840Y640790D03*
X165840Y634290D03*
X165840Y627790D03*
D12*
X264160Y638810D03*
D13*
X273910Y621560D03*
X267410Y621560D03*
X260910Y621560D03*
X254410Y621560D03*
D14*
X246910Y629060D03*
X246910Y635560D03*
X246910Y642060D03*
X246910Y648560D03*
D13*
X254410Y656060D03*
X260910Y656060D03*
X267410Y656060D03*
X273910Y656060D03*
D14*
X281410Y648560D03*
X281410Y642060D03*
X281410Y635560D03*
X281410Y629060D03*
D12*
X379730Y638810D03*
D13*
X389480Y621560D03*
X382980Y621560D03*
X376480Y621560D03*
X369980Y621560D03*
D14*
X362480Y629060D03*
X362480Y635560D03*
X362480Y642060D03*
X362480Y648560D03*
D13*
X369980Y656060D03*
X376480Y656060D03*
X382980Y656060D03*
X389480Y656060D03*
D14*
X396980Y648560D03*
X396980Y642060D03*
X396980Y635560D03*
X396980Y629060D03*
D10*
X99060Y713080D03*
X99060Y694080D03*
X99060Y663550D03*
X99060Y644550D03*
X215900Y713080D03*
X215900Y694080D03*
X215900Y663550D03*
X215900Y644550D03*
X331470Y713080D03*
X331470Y694080D03*
X331470Y663550D03*
X331470Y644550D03*
M02*
