G04 EAGLE Gerber RS-274X export*
G75*
%MOMM*%
%FSLAX34Y34*%
%LPD*%
%INSoldermask Top*%
%IPPOS*%
%AMOC8*
5,1,8,0,0,1.08239X$1,22.5*%
G01*
%ADD10R,1.503200X1.703200*%
%ADD11R,1.703200X1.503200*%
%ADD12R,2.743200X5.283200*%
%ADD13P,1.869504X8X112.500000*%
%ADD14R,4.203200X2.203200*%
%ADD15C,1.727200*%
%ADD16R,1.219200X2.895600*%
%ADD17R,10.363200X9.144000*%
%ADD18P,1.869504X8X22.500000*%
%ADD19C,2.203959*%


D10*
X230530Y146050D03*
X249530Y146050D03*
D11*
X148590Y207670D03*
X148590Y226670D03*
D12*
X196850Y100330D03*
D13*
X66040Y40640D03*
X40640Y40640D03*
X66040Y66040D03*
X40640Y66040D03*
X66040Y91440D03*
X40640Y91440D03*
X66040Y116840D03*
X40640Y116840D03*
X66040Y142240D03*
X40640Y142240D03*
X66040Y167640D03*
X40640Y167640D03*
X66040Y193040D03*
X40640Y193040D03*
X66040Y218440D03*
X40640Y218440D03*
X66040Y243840D03*
X40640Y243840D03*
X66040Y269240D03*
X40640Y269240D03*
X66040Y294640D03*
X40640Y294640D03*
X66040Y320040D03*
X40640Y320040D03*
X66040Y345440D03*
X40640Y345440D03*
X66040Y370840D03*
X40640Y370840D03*
X66040Y396240D03*
X40640Y396240D03*
X66040Y421640D03*
X40640Y421640D03*
X66040Y447040D03*
X40640Y447040D03*
X66040Y472440D03*
X40640Y472440D03*
X66040Y497840D03*
X40640Y497840D03*
X66040Y523240D03*
X40640Y523240D03*
D12*
X290830Y102870D03*
D14*
X361640Y143510D03*
X361640Y118110D03*
X361640Y92710D03*
X361640Y67310D03*
X481640Y67310D03*
X481640Y92710D03*
X481640Y118110D03*
X481640Y143510D03*
D15*
X363982Y812800D02*
X363982Y828040D01*
X338582Y828040D02*
X338582Y812800D01*
X313182Y812800D02*
X313182Y828040D01*
X287782Y828040D02*
X287782Y812800D01*
X262382Y812800D02*
X262382Y828040D01*
X236982Y828040D02*
X236982Y812800D01*
X211582Y812800D02*
X211582Y828040D01*
X186182Y828040D02*
X186182Y812800D01*
X236982Y501650D02*
X236982Y486410D01*
X262382Y486410D02*
X262382Y501650D01*
X287782Y501650D02*
X287782Y486410D01*
X313182Y486410D02*
X313182Y501650D01*
X53340Y762000D02*
X38100Y762000D01*
X38100Y736600D02*
X53340Y736600D01*
X53340Y711200D02*
X38100Y711200D01*
X495300Y711200D02*
X510540Y711200D01*
X510540Y736600D02*
X495300Y736600D01*
X495300Y762000D02*
X510540Y762000D01*
X378460Y501650D02*
X378460Y486410D01*
X403860Y486410D02*
X403860Y501650D01*
X429260Y501650D02*
X429260Y486410D01*
X378460Y426720D02*
X378460Y411480D01*
X403860Y411480D02*
X403860Y426720D01*
X429260Y426720D02*
X429260Y411480D01*
X454660Y411480D02*
X454660Y426720D01*
D16*
X232918Y188214D03*
X258318Y188214D03*
X283718Y188214D03*
D17*
X258318Y280162D03*
D15*
X116840Y312420D02*
X116840Y327660D01*
X142240Y327660D02*
X142240Y312420D01*
X167640Y312420D02*
X167640Y327660D01*
X116840Y363220D02*
X116840Y378460D01*
X142240Y378460D02*
X142240Y363220D01*
X167640Y363220D02*
X167640Y378460D01*
X116332Y414020D02*
X116332Y429260D01*
X141732Y429260D02*
X141732Y414020D01*
X167132Y414020D02*
X167132Y429260D01*
D18*
X115570Y273050D03*
X167894Y271526D03*
D15*
X505460Y336550D02*
X505460Y351790D01*
X480060Y351790D02*
X480060Y336550D01*
X454660Y336550D02*
X454660Y351790D01*
X429260Y351790D02*
X429260Y336550D01*
X403860Y336550D02*
X403860Y351790D01*
X378460Y351790D02*
X378460Y336550D01*
X353060Y336550D02*
X353060Y351790D01*
D19*
X281051Y414909D03*
X149860Y133350D03*
X132080Y676910D03*
X186690Y612140D03*
X68580Y595630D03*
X400050Y679450D03*
X278130Y675640D03*
X156933Y676910D03*
X429260Y679450D03*
X351790Y565150D03*
X299114Y692150D03*
X127000Y599440D03*
X179734Y673100D03*
X248920Y675640D03*
X298450Y595630D03*
X430530Y628650D03*
X365760Y679450D03*
X430530Y590550D03*
X299720Y622300D03*
X270510Y596900D03*
X322580Y118110D03*
X482600Y181610D03*
X99060Y161290D03*
X95250Y246634D03*
X110490Y210820D03*
X271780Y346710D03*
X163830Y594360D03*
X109220Y459740D03*
X109220Y129540D03*
M02*
